<svg width="24" height="24" viewBox="0 0 24 24" fill="none" xmlns="http://www.w3.org/2000/svg">
<mask id="mask0_1_208" style="mask-type:alpha" maskUnits="userSpaceOnUse" x="0" y="0" width="24" height="24">
<rect width="24" height="24" fill="#D9D9D9"/>
</mask>
<g mask="url(#mask0_1_208)">
<path d="M14 13C13.1667 13 12.4583 12.7083 11.875 12.125C11.2917 11.5417 11 10.8333 11 10C11 9.16667 11.2917 8.45833 11.875 7.875C12.4583 7.29167 13.1667 7 14 7C14.8333 7 15.5417 7.29167 16.125 7.875C16.7083 8.45833 17 9.16667 17 10C17 10.8333 16.7083 11.5417 16.125 12.125C15.5417 12.7083 14.8333 13 14 13ZM7 16C6.45 16 5.97933 15.804 5.588 15.412C5.196 15.0207 5 14.55 5 14V6C5 5.45 5.196 4.97933 5.588 4.588C5.97933 4.196 6.45 4 7 4H21C21.55 4 22.021 4.196 22.413 4.588C22.8043 4.97933 23 5.45 23 6V14C23 14.55 22.8043 15.0207 22.413 15.412C22.021 15.804 21.55 16 21 16H7ZM9 14H19C19 13.45 19.1957 12.979 19.587 12.587C19.979 12.1957 20.45 12 21 12V8C20.45 8 19.979 7.804 19.587 7.412C19.1957 7.02067 19 6.55 19 6H9C9 6.55 8.804 7.02067 8.412 7.412C8.02067 7.804 7.55 8 7 8V12C7.55 12 8.02067 12.1957 8.412 12.587C8.804 12.979 9 13.45 9 14ZM20 20H3C2.45 20 1.97933 19.8043 1.588 19.413C1.196 19.021 1 18.55 1 18V7H3V18H20V20Z" fill="black"/>
</g>
</svg>
