<svg width="29" height="29" viewBox="0 0 29 29" fill="none" xmlns="http://www.w3.org/2000/svg">
<mask id="mask0_1_150" style="mask-type:alpha" maskUnits="userSpaceOnUse" x="0" y="0" width="29" height="29">
<rect width="29" height="29" fill="#D9D9D9"/>
</mask>
<g mask="url(#mask0_1_150)">
<path d="M19.3333 16.3125C19.8569 16.3125 20.2899 16.1413 20.6323 15.799C20.9747 15.4566 21.1458 15.0236 21.1458 14.5C21.1458 13.9764 20.9747 13.5434 20.6323 13.201C20.2899 12.8587 19.8569 12.6875 19.3333 12.6875C18.8097 12.6875 18.3767 12.8587 18.0344 13.201C17.692 13.5434 17.5208 13.9764 17.5208 14.5C17.5208 15.0236 17.692 15.4566 18.0344 15.799C18.3767 16.1413 18.8097 16.3125 19.3333 16.3125ZM6.04167 25.375C5.37708 25.375 4.80796 25.1386 4.33429 24.6657C3.86143 24.192 3.625 23.6229 3.625 22.9583V6.04167C3.625 5.37708 3.86143 4.80796 4.33429 4.33429C4.80796 3.86143 5.37708 3.625 6.04167 3.625H22.9583C23.6229 3.625 24.192 3.86143 24.6657 4.33429C25.1386 4.80796 25.375 5.37708 25.375 6.04167V9.0625H22.9583V6.04167H6.04167V22.9583H22.9583V19.9375H25.375V22.9583C25.375 23.6229 25.1386 24.192 24.6657 24.6657C24.192 25.1386 23.6229 25.375 22.9583 25.375H6.04167ZM15.7083 20.5417C15.0437 20.5417 14.475 20.3052 14.0022 19.8324C13.5285 19.3587 13.2917 18.7896 13.2917 18.125V10.875C13.2917 10.2104 13.5285 9.64129 14.0022 9.16763C14.475 8.69476 15.0437 8.45833 15.7083 8.45833H24.1667C24.8312 8.45833 25.4004 8.69476 25.874 9.16763C26.3469 9.64129 26.5833 10.2104 26.5833 10.875V18.125C26.5833 18.7896 26.3469 19.3587 25.874 19.8324C25.4004 20.3052 24.8312 20.5417 24.1667 20.5417H15.7083ZM24.1667 18.125V10.875H15.7083V18.125H24.1667Z" fill="black"/>
</g>
</svg>
